<?xml version="1.0" standalone="no"?>
<!DOCTYPE svg PUBLIC "-//W3C//DTD SVG 20010904//EN"
 "http://www.w3.org/TR/2001/REC-SVG-20010904/DTD/svg10.dtd">
<svg version="1.0" xmlns="http://www.w3.org/2000/svg"
 width="200.000000pt" height="200.000000pt" viewBox="0 0 200.000000 200.000000"
 preserveAspectRatio="xMidYMid meet">

<g transform="translate(0.000000,200.000000) scale(0.100000,-0.100000)"
fill="#000000" stroke="none">
<path d="M843 1886 c-287 -55 -521 -231 -648 -489 -70 -142 -88 -224 -88 -397
0 -173 18 -255 88 -397 89 -180 228 -319 408 -408 142 -70 224 -88 397 -88
173 0 255 18 397 88 180 89 319 228 408 408 70 142 88 224 88 397 0 173 -18
255 -88 397 -115 233 -331 410 -580 474 -103 26 -284 33 -382 15z m305 -152
c296 -61 525 -290 586 -586 107 -521 -361 -989 -882 -882 -406 83 -669 479
-586 882 83 406 478 669 882 586z"/>
<path d="M860 1634 c-180 -38 -357 -177 -439 -344 -94 -193 -94 -387 0 -580
83 -169 260 -307 444 -345 400 -84 785 228 785 635 0 239 -146 474 -360 579
-139 68 -284 87 -430 55z m140 -183 l0 -48 -59 -22 c-150 -55 -267 -172 -323
-323 l-21 -58 -50 0 -50 0 7 56 c24 206 178 381 379 430 29 7 67 13 85 13 32
1 32 1 32 -48z m349 -665 c67 -35 65 -143 -4 -174 -91 -41 -179 51 -131 137
26 47 84 63 135 37z"/>
</g>
</svg>
